<mxfile host="app.diagrams.net" modified="2024-01-24T01:09:31.961Z" agent="Mozilla/5.0 (Windows NT 10.0; Win64; x64) AppleWebKit/537.36 (KHTML, like Gecko) Chrome/120.0.0.0 Safari/537.36" version="23.0.0" etag="23aKkKL9zCoNJh-swn1s" type="github">
  <diagram name="第 1 页" id="uk0PkxGieQ0bgNfgGHlH">
    <mxGraphModel>
      <root>
        <mxCell id="0" />
        <mxCell id="1" parent="0" />
      </root>
    </mxGraphModel>
  </diagram>
</mxfile>
